<?xml version="1.0" encoding="UTF-8"?>
<svg id="Isolation_Mode" xmlns="http://www.w3.org/2000/svg" version="1.1" viewBox="0 0 720 720">
  <!-- Generator: Adobe Illustrator 30.0.0, SVG Export Plug-In . SVG Version: 2.1.1 Build 123)  -->
  <defs>
    <style>
      .st0 {
        fill: #070707;
      }

      .st1 {
        fill: #cd5346;
      }

      .st2 {
        stroke: #816143;
        stroke-miterlimit: 10;
        stroke-width: .2px;
      }

      .st2, .st3 {
        fill: #816143;
      }

      .st4 {
        fill: #ecc878;
      }

      .st5 {
        font-family: LazydogRegular, Lazydog;
        font-size: 27.12px;
      }

      .st6 {
        fill: #ce3385;
      }
    </style>
  </defs>
  <g>
    <g>
      <path class="st3" d="M621.95,315.11c-9.19-12.45-24.42-20.59-41.66-20.59s-32.48,8.15-41.67,20.6c0,0-31.71-2.6-30.33,25.19.63,12.67,5.98,21.33,11.62,27-1.06,3.51-1.64,7.23-1.64,11.07,0,21.6,18,39.12,40.2,39.12,8.03,0,15.52-2.3,21.8-6.25,6.28,3.95,13.76,6.25,21.8,6.25,22.2,0,40.2-17.51,40.2-39.12,0-3.9-.59-7.66-1.68-11.21,5.59-5.68,10.87-14.3,11.49-26.87,1.31-26.45-27.36-25.37-30.12-25.21Z"/>
      <path class="st4" d="M634.91,363.22c0-15.35-12.79-27.79-28.56-27.79-11.59,0-21.57,6.72-26.04,16.37-4.45-9.71-14.46-16.48-26.09-16.48-15.77,0-28.56,12.44-28.56,27.79,0,14.41,11.27,26.26,25.71,27.65l-.13.24c1.38,4.67,1.15,9.63,0,13.81-1.15,4.18-.69,10.18,4.59,12.69,5.29,1.3,5.56-.53,13.73,4.88,3.7,2.45,7.55,3.1,10.65,3.07,3.1.02,6.95-.62,10.65-3.07,8.17-5.41,8.44-3.59,13.73-4.88,5.28-2.51,5.74-8.52,4.59-12.69-1.15-4.18-1.38-9.14,0-13.81l-.02-.13c14.45-1.37,25.75-13.23,25.75-27.66Z"/>
      <path class="st1" d="M594.33,406.25c3.44-3.85,3.31-9.75-.39-13.45-3.69-3.69-9.6-3.82-13.45-.39h-.01c-3.83-3.84-10.03-3.84-13.86-.01-3.83,3.83-3.83,10.03,0,13.86l13.86,13.86,13.86-13.86h-.01Z"/>
      <path class="st6" d="M520.07,362.56c2.02-4.31,4.83-8.21,8.24-11.51-.44-2.57-.68-5.2-.68-7.89,0-8.04,2.82-17.71,6.49-24.38-1.49-.03-3.18-.02-4.17.09-2.07.23-17.97,2.32-19.12,18.86-1.15,16.54,9.24,24.83,9.24,24.83Z"/>
      <path class="st6" d="M640.44,362.56c-2.02-4.31-4.83-8.21-8.24-11.51.44-2.57.68-5.2.68-7.89,0-8.04-2.82-17.71-6.49-24.38,1.49-.03,3.18-.02,4.17.09,2.07.23,17.97,2.32,19.12,18.86,1.15,16.54-9.24,24.83-9.24,24.83Z"/>
      <path class="st3" d="M573.22,383.53c0-2.62,2.13-4.75,4.75-4.75v4.75h-4.75Z"/>
      <path class="st3" d="M587.7,383.55c0-2.62-2.13-4.75-4.75-4.75v4.75s4.75,0,4.75,0Z"/>
      <ellipse class="st0" cx="557.39" cy="361.81" rx="6.37" ry="14.8"/>
      <ellipse class="st0" cx="604.87" cy="361.81" rx="6.37" ry="14.8"/>
      <path class="st2" d="M573.5,374.79s-.01,0-.02,0h0c-4.17,0-7.56,3.38-7.57,7.54,0,0,0,.02,0,.03,0,.23.18.41.41.41s.41-.18.41-.41c0,0,0-.01,0-.02,0-3.72,3.03-6.74,6.74-6.74.01,0,.02,0,.04,0,.23,0,.41-.18.41-.41s-.18-.41-.41-.41Z"/>
      <path class="st2" d="M594.52,382.26c-.06-4.13-3.43-7.47-7.57-7.47h0s0,0-.01,0c-.23,0-.41.18-.41.41s.18.41.41.41c.01,0,.02,0,.04,0,3.72.01,6.74,3.04,6.74,6.76h0c0,.23.18.41.41.41s.41-.18.41-.41c0-.04,0-.07-.02-.11Z"/>
    </g>
    <g>
      <path class="st3" d="M402.69,315.11c-9.19-12.45-24.42-20.59-41.66-20.59s-32.48,8.15-41.67,20.6c0,0-31.71-2.6-30.33,25.19.63,12.67,5.98,21.33,11.62,27-1.06,3.51-1.64,7.23-1.64,11.07,0,21.6,18,39.12,40.2,39.12,8.03,0,15.52-2.3,21.8-6.25,6.28,3.95,13.76,6.25,21.8,6.25,22.2,0,40.2-17.51,40.2-39.12,0-3.9-.59-7.66-1.68-11.21,5.59-5.68,10.87-14.3,11.49-26.87,1.31-26.45-27.36-25.37-30.12-25.21Z"/>
      <path class="st4" d="M415.65,363.22c0-15.35-12.79-27.79-28.56-27.79-11.59,0-21.57,6.72-26.04,16.37-4.45-9.71-14.46-16.48-26.09-16.48-15.77,0-28.56,12.44-28.56,27.79,0,14.41,11.27,26.26,25.71,27.65l-.13.24c1.38,4.67,1.15,9.63,0,13.81s-.69,10.18,4.59,12.69c5.29,1.3,5.56-.53,13.73,4.88,3.7,2.45,7.55,3.1,10.65,3.07,3.1.02,6.95-.62,10.65-3.07,8.17-5.41,8.44-3.59,13.73-4.88,5.28-2.51,5.74-8.52,4.59-12.69-1.15-4.18-1.38-9.14,0-13.81l-.02-.13c14.45-1.37,25.75-13.23,25.75-27.66Z"/>
      <path class="st6" d="M300.81,362.56c2.02-4.31,4.83-8.21,8.24-11.51-.44-2.57-.68-5.2-.68-7.89,0-8.04,2.82-17.71,6.49-24.38-1.49-.03-3.18-.02-4.17.09-2.07.23-17.97,2.32-19.12,18.86-1.15,16.54,9.24,24.83,9.24,24.83Z"/>
      <path class="st6" d="M421.18,362.56c-2.02-4.31-4.83-8.21-8.24-11.51.44-2.57.68-5.2.68-7.89,0-8.04-2.82-17.71-6.49-24.38,1.49-.03,3.18-.02,4.17.09,2.07.23,17.97,2.32,19.12,18.86,1.15,16.54-9.24,24.83-9.24,24.83Z"/>
      <path class="st3" d="M353.97,383.53c0-2.62,2.13-4.75,4.75-4.75v4.75h-4.75Z"/>
      <path class="st3" d="M368.44,383.55c0-2.62-2.13-4.75-4.75-4.75v4.75s4.75,0,4.75,0Z"/>
      <ellipse class="st0" cx="337.28" cy="361.81" rx="6.37" ry="14.8"/>
      <ellipse class="st0" cx="385.61" cy="361.81" rx="6.37" ry="14.8"/>
      <path class="st2" d="M354.24,374.79s-.01,0-.02,0h0c-4.17,0-7.56,3.38-7.57,7.54,0,0,0,.02,0,.03,0,.23.18.41.41.41s.41-.18.41-.41c0,0,0-.01,0-.02,0-3.72,3.03-6.74,6.74-6.74.01,0,.02,0,.04,0,.23,0,.41-.18.41-.41s-.18-.41-.41-.41Z"/>
      <path class="st2" d="M375.26,382.26c-.06-4.13-3.43-7.47-7.57-7.47h0s0,0-.01,0c-.23,0-.41.18-.41.41s.18.41.41.41c.01,0,.02,0,.04,0,3.72.01,6.74,3.04,6.74,6.76h0c0,.23.18.41.41.41s.41-.18.41-.41c0-.04,0-.07-.02-.11Z"/>
      <path class="st3" d="M343.65,393.96c2.31,7.4,9.22,12.77,17.38,12.77s15.07-5.37,17.38-12.77h-34.77Z"/>
      <path class="st1" d="M312.86,363.98c3.44-3.85,3.31-9.75-.39-13.45s-9.6-3.82-13.45-.39h-.01c-3.83-3.84-10.03-3.84-13.86-.01-3.83,3.83-3.83,10.03,0,13.86l13.86,13.86,13.86-13.86h-.01Z"/>
      <path class="st1" d="M436.87,363.98c3.44-3.85,3.31-9.75-.39-13.45-3.69-3.69-9.6-3.82-13.45-.39h-.01c-3.83-3.84-10.03-3.84-13.86-.01-3.83,3.83-3.83,10.03,0,13.86l13.86,13.86,13.86-13.86h-.01Z"/>
    </g>
    <g>
      <path class="st3" d="M181.6,315.11c-9.19-12.45-24.42-20.59-41.66-20.59s-32.48,8.15-41.67,20.6c0,0-31.71-2.6-30.33,25.19.63,12.67,5.98,21.33,11.62,27-1.06,3.51-1.64,7.23-1.64,11.07,0,21.6,18,39.12,40.2,39.12,8.03,0,15.52-2.3,21.8-6.25,6.28,3.95,13.76,6.25,21.8,6.25,22.2,0,40.2-17.51,40.2-39.12,0-3.9-.59-7.66-1.68-11.21,5.59-5.68,10.87-14.3,11.49-26.87,1.31-26.45-27.36-25.37-30.12-25.21Z"/>
      <path class="st4" d="M194.56,363.22c0-15.35-12.79-27.79-28.56-27.79-11.59,0-21.57,6.72-26.04,16.37-4.45-9.71-14.46-16.48-26.09-16.48-15.77,0-28.56,12.44-28.56,27.79,0,14.41,11.27,26.26,25.71,27.65l-.13.24c1.38,4.67,1.15,9.63,0,13.81-1.15,4.18-.69,10.18,4.59,12.69,5.29,1.3,5.56-.53,13.73,4.88,3.7,2.45,7.55,3.1,10.65,3.07,3.1.02,6.95-.62,10.65-3.07,8.17-5.41,8.44-3.59,13.73-4.88,5.28-2.51,5.74-8.52,4.59-12.69-1.15-4.18-1.38-9.14,0-13.81l-.02-.13c14.45-1.37,25.75-13.23,25.75-27.66Z"/>
      <path class="st6" d="M79.72,362.56c2.02-4.31,4.83-8.21,8.24-11.51-.44-2.57-.68-5.2-.68-7.89,0-8.04,2.82-17.71,6.49-24.38-1.49-.03-3.18-.02-4.17.09-2.07.23-17.97,2.32-19.12,18.86-1.15,16.54,9.24,24.83,9.24,24.83Z"/>
      <path class="st6" d="M200.08,362.56c-2.02-4.31-4.83-8.21-8.24-11.51.44-2.57.68-5.2.68-7.89,0-8.04-2.82-17.71-6.49-24.38,1.49-.03,3.18-.02,4.17.09,2.07.23,17.97,2.32,19.12,18.86,1.15,16.54-9.24,24.83-9.24,24.83Z"/>
      <path class="st3" d="M132.87,383.53c0-2.62,2.13-4.75,4.75-4.75v4.75h-4.75Z"/>
      <path class="st3" d="M147.34,383.55c0-2.62-2.13-4.75-4.75-4.75v4.75s4.75,0,4.75,0Z"/>
      <path class="st2" d="M133.14,374.79s-.01,0-.02,0h0c-4.17,0-7.56,3.38-7.57,7.54,0,0,0,.02,0,.03,0,.23.18.41.41.41s.41-.18.41-.41c0,0,0-.01,0-.02,0-3.72,3.03-6.74,6.74-6.74.01,0,.02,0,.04,0,.23,0,.41-.18.41-.41s-.18-.41-.41-.41Z"/>
      <path class="st2" d="M154.17,382.26c-.06-4.13-3.43-7.47-7.57-7.47h0s0,0-.01,0c-.23,0-.41.18-.41.41s.18.41.41.41c.01,0,.02,0,.04,0,3.72.01,6.74,3.04,6.74,6.76h0c0,.23.18.41.41.41s.41-.18.41-.41c0-.04,0-.07-.02-.11Z"/>
      <path class="st3" d="M122.55,393.96c2.31,7.4,9.22,12.77,17.38,12.77s15.07-5.37,17.38-12.77h-34.77Z"/>
      <path class="st1" d="M128.69,363.75c3.44-3.85,3.31-9.75-.39-13.45s-9.6-3.82-13.45-.39h-.01c-3.83-3.84-10.03-3.84-13.86-.01-3.83,3.83-3.83,10.03,0,13.86l13.86,13.86,13.86-13.86h-.01Z"/>
      <path class="st1" d="M178.56,363.98c3.44-3.85,3.31-9.75-.39-13.45-3.69-3.69-9.6-3.82-13.45-.39h-.01c-3.83-3.84-10.03-3.84-13.86-.01-3.83,3.83-3.83,10.03,0,13.86l13.86,13.86,13.86-13.86h-.01Z"/>
    </g>
  </g>
  <text class="st5" transform="translate(62.76 472.13)"><tspan x="0" y="0" xml:space="preserve">SEE LOVE            HEAR LOVE          SPEAK LOVE</tspan></text>
</svg>