<?xml version="1.0" encoding="UTF-8"?>
<svg xmlns="http://www.w3.org/2000/svg" version="1.1" viewBox="0 0 720 720">
  <!-- Generator: Adobe Illustrator 30.0.0, SVG Export Plug-In . SVG Version: 2.1.1 Build 123)  -->
  <defs>
    <style>
      .st0, .st1, .st2, .st3, .st4, .st5, .st6, .st7, .st8, .st9, .st10, .st11, .st12, .st13 {
        stroke: #000;
        stroke-miterlimit: 10;
      }

      .st0, .st1, .st2, .st7, .st8, .st10, .st11 {
        stroke-width: .25px;
      }

      .st0, .st14 {
        fill: #788b5c;
      }

      .st1 {
        fill: #49648d;
      }

      .st2 {
        fill: #e7ca83;
      }

      .st3 {
        stroke-width: 1.96px;
      }

      .st4 {
        stroke-width: 5.02px;
      }

      .st4, .st5, .st6 {
        fill: #fff;
      }

      .st5, .st12, .st13 {
        stroke-width: 5px;
      }

      .st6 {
        stroke-width: 4.01px;
      }

      .st7 {
        fill: #bf4184;
      }

      .st15, .st11 {
        fill: #d83832;
      }

      .st8 {
        fill: #7c6b9d;
      }

      .st9 {
        stroke-width: .5px;
      }

      .st10, .st16 {
        fill: #f7931e;
      }

      .st12 {
        fill: none;
      }
    </style>
  </defs>
  <g id="Layer_1">
    <rect class="st16" x="360" y="11.46" width="339.01" height="348.54"/>
    <rect class="st14" x="21.3" y="11.46" width="339.01" height="348.54"/>
    <rect class="st16" x="20.99" y="361.02" width="339.01" height="348.54"/>
    <rect class="st15" x="360" y="361.02" width="339.01" height="348.54"/>
    <path d="M56.92,396c-12.65-10.95-25.15-23.14-37.06-34.94,0,0-1.08-1.06-1.08-1.06l1.08-1.06c11.92-11.81,24.4-23.99,37.06-34.94-10.95,12.65-23.13,25.16-34.94,37.06,0,0,0-2.12,0-2.12,11.81,11.92,23.98,24.41,34.94,37.06h0Z"/>
    <path d="M663.08,324c13.35,10.55,25.7,22.26,37.77,34.23,0,0,1.77,1.77,1.77,1.77-6.59,6.59-13.26,13.12-20.16,19.38-6.28,5.74-12.65,11.37-19.38,16.62,10.54-13.36,22.26-25.7,34.23-37.77,0,0,0,3.53,0,3.53-11.97-12.07-23.68-24.42-34.23-37.77h0Z"/>
    <path d="M324,54c10.55-13.35,22.26-25.7,34.23-37.77,0,0,1.77-1.77,1.77-1.77,6.59,6.59,13.12,13.26,19.38,20.16,5.74,6.28,11.37,12.65,16.62,19.38-13.36-10.54-25.7-22.26-37.77-34.23,0,0,3.53,0,3.53,0-12.07,11.97-24.42,23.68-37.77,34.23h0Z"/>
    <path d="M243.29,54c10.55-13.35,22.26-25.7,34.23-37.77,0,0,1.77-1.77,1.77-1.77,6.59,6.59,13.12,13.26,19.38,20.16,5.74,6.28,11.37,12.65,16.62,19.38-13.36-10.54-25.7-22.26-37.77-34.23,0,0,3.53,0,3.53,0-12.07,11.97-24.42,23.68-37.77,34.23h0Z"/>
    <path d="M396,666c-10.55,13.35-22.26,25.7-34.23,37.77,0,0-1.77,1.77-1.77,1.77-6.59-6.59-13.12-13.26-19.38-20.16-5.74-6.28-11.37-12.65-16.62-19.38,13.36,10.54,25.7,22.26,37.77,34.23,0,0-3.53,0-3.53,0,12.07-11.97,24.42-23.68,37.77-34.23h0Z"/>
    <line class="st4" x1="360" y1="18" x2="360" y2="702"/>
    <line class="st4" x1="279.29" y1="18" x2="279.29" y2="305.91"/>
    <line class="st5" x1="20.99" y1="360" x2="699.01" y2="360"/>
    <line class="st6" x1="342" y1="324" x2="378" y2="324"/>
    <line class="st6" x1="342" y1="288" x2="378" y2="288"/>
    <line class="st6" x1="342" y1="252" x2="378" y2="252"/>
    <line class="st6" x1="342" y1="216" x2="378" y2="216"/>
    <line class="st6" x1="342" y1="180" x2="378" y2="180"/>
    <line class="st6" x1="342" y1="144" x2="378" y2="144"/>
    <line class="st6" x1="342" y1="108" x2="378" y2="108"/>
    <line class="st6" x1="342" y1="72" x2="378" y2="72"/>
    <line class="st6" x1="342" y1="648" x2="378" y2="648"/>
    <line class="st6" x1="342" y1="612" x2="378" y2="612"/>
    <line class="st6" x1="342" y1="576" x2="378" y2="576"/>
    <line class="st6" x1="342" y1="540" x2="378" y2="540"/>
    <line class="st6" x1="342" y1="504" x2="378" y2="504"/>
    <line class="st6" x1="342" y1="468" x2="378" y2="468"/>
    <line class="st6" x1="342" y1="432" x2="378" y2="432"/>
    <line class="st6" x1="342" y1="396" x2="378" y2="396"/>
    <line class="st6" x1="72" y1="342" x2="72" y2="378"/>
    <line class="st6" x1="108" y1="342" x2="108" y2="378"/>
    <line class="st6" x1="144" y1="342" x2="144" y2="378"/>
    <line class="st6" x1="180" y1="342" x2="180" y2="378"/>
    <line class="st6" x1="216" y1="342" x2="216" y2="378"/>
    <line class="st6" x1="252" y1="342" x2="252" y2="378"/>
    <line class="st6" x1="288" y1="342" x2="288" y2="378"/>
    <line class="st6" x1="324" y1="342" x2="324" y2="378"/>
    <line class="st6" x1="396" y1="342" x2="396" y2="378"/>
    <line class="st6" x1="432" y1="342" x2="432" y2="378"/>
    <line class="st6" x1="468" y1="342" x2="468" y2="378"/>
    <line class="st6" x1="504" y1="342" x2="504" y2="378"/>
    <line class="st6" x1="540" y1="342" x2="540" y2="378"/>
    <line class="st6" x1="576" y1="342" x2="576" y2="378"/>
    <line class="st6" x1="612" y1="342" x2="612" y2="378"/>
    <line class="st6" x1="648" y1="342" x2="648" y2="378"/>
    <path class="st9" d="M334.76,67.16c1.15,0,1.96.8,1.96,1.77,0,.36-.11.71-.34.97-.11.12-.47.38-1,.77.83.46,1.64,1.03,1.64,2.07,0,1.4-1.27,2.17-2.41,2.17-1.33,0-2.31-.77-2.31-1.98,0-.61.26-.95.55-1.19.19-.17.66-.48,1.08-.74-.78-.46-1.33-1.03-1.33-1.88,0-1.04.85-1.97,2.16-1.97ZM334.76,74.51c.8,0,1.3-.53,1.3-1.4,0-.96-.8-1.43-1.77-1.9-.65.37-1.01.94-1.01,1.64,0,1.1.7,1.66,1.49,1.66ZM334.61,67.55c-.72,0-1.09.56-1.09,1.24,0,.88.59,1.2,1.52,1.69.47-.36.79-.78.79-1.49,0-1.01-.6-1.44-1.22-1.44Z"/>
    <path class="st9" d="M72.1,382.32c1.15,0,1.96.8,1.96,1.77,0,.36-.11.71-.34.97-.11.12-.47.38-1,.77.83.46,1.64,1.03,1.64,2.08,0,1.4-1.27,2.17-2.41,2.17-1.33,0-2.31-.77-2.31-1.98,0-.61.26-.95.55-1.19.19-.17.66-.48,1.08-.74-.78-.46-1.33-1.03-1.33-1.88,0-1.04.85-1.97,2.16-1.97ZM72.1,389.67c.8,0,1.3-.53,1.3-1.4,0-.96-.8-1.43-1.77-1.89-.65.37-1.01.94-1.01,1.64,0,1.1.7,1.66,1.49,1.66ZM71.94,382.72c-.72,0-1.09.56-1.09,1.24,0,.88.59,1.2,1.52,1.69.47-.36.79-.78.79-1.49,0-1.01-.6-1.44-1.22-1.44Z"/>
    <g>
      <path class="st9" d="M331.93,648.42h-2.76l.08-.73h2.76l-.08.73Z"/>
      <path class="st9" d="M335.61,643.16c1.15,0,1.96.8,1.96,1.77,0,.36-.11.71-.34.97-.11.12-.47.38-1,.77.83.46,1.64,1.03,1.64,2.08,0,1.4-1.27,2.17-2.41,2.17-1.33,0-2.31-.77-2.31-1.98,0-.61.26-.95.55-1.19.19-.17.66-.48,1.08-.74-.78-.46-1.33-1.03-1.33-1.88,0-1.04.85-1.97,2.16-1.97ZM335.61,650.51c.8,0,1.3-.53,1.3-1.4,0-.96-.8-1.43-1.77-1.89-.65.37-1.01.94-1.01,1.64,0,1.1.7,1.66,1.49,1.66ZM335.46,643.55c-.72,0-1.09.56-1.09,1.24,0,.88.59,1.2,1.52,1.69.47-.36.79-.78.79-1.49,0-1.01-.6-1.44-1.22-1.44Z"/>
    </g>
    <g>
      <path class="st9" d="M646.43,387.59h-2.76l.08-.73h2.76l-.08.73Z"/>
      <path class="st9" d="M650.11,382.32c1.15,0,1.96.8,1.96,1.78,0,.36-.11.71-.34.97-.11.12-.47.38-1,.77.83.46,1.64,1.03,1.64,2.07,0,1.4-1.27,2.17-2.41,2.17-1.33,0-2.31-.77-2.31-1.98,0-.61.26-.95.55-1.19.19-.17.66-.48,1.08-.74-.78-.46-1.33-1.03-1.33-1.88,0-1.04.85-1.97,2.16-1.97ZM650.11,389.67c.8,0,1.3-.53,1.3-1.4,0-.96-.8-1.43-1.78-1.9-.65.37-1.01.94-1.01,1.64,0,1.1.7,1.66,1.49,1.66ZM649.96,382.72c-.72,0-1.09.56-1.09,1.24,0,.88.59,1.2,1.52,1.69.47-.36.79-.78.79-1.49,0-1.01-.6-1.44-1.22-1.44Z"/>
    </g>
    <path class="st9" d="M337.27,103.46c-1.15,2.43-2.27,4.86-3.43,7.34l-.86.08-.08-.13c1.25-2.03,2.57-4.51,3.51-6.56h-2.57c-.78,0-.83.11-1.15.9h-.37c.12-.67.17-1.27.23-1.79h4.65l.07.16Z"/>
    <path class="st9" d="M110.61,382.62c-1.15,2.43-2.27,4.86-3.43,7.34l-.86.08-.08-.13c1.25-2.03,2.57-4.51,3.51-6.56h-2.57c-.78,0-.83.11-1.15.9h-.37c.12-.67.17-1.27.23-1.79h4.65l.07.16Z"/>
    <g>
      <path class="st9" d="M331.93,612.42h-2.76l.08-.73h2.76l-.08.73Z"/>
      <path class="st9" d="M338.12,607.46c-1.15,2.43-2.27,4.86-3.43,7.34l-.86.08-.08-.13c1.25-2.03,2.57-4.51,3.51-6.56h-2.57c-.78,0-.83.11-1.15.9h-.37c.12-.67.17-1.27.23-1.79h4.65l.07.16Z"/>
    </g>
    <g>
      <path class="st9" d="M610.43,387.59h-2.76l.08-.73h2.76l-.08.73Z"/>
      <path class="st9" d="M616.62,382.62c-1.15,2.43-2.27,4.86-3.43,7.34l-.86.08-.08-.13c1.25-2.03,2.57-4.51,3.51-6.56h-2.57c-.78,0-.83.11-1.15.9h-.37c.12-.67.17-1.27.23-1.79h4.65l.07.16Z"/>
    </g>
    <path class="st9" d="M334.25,142.25c.25-.13.53-.2.77-.2,1.27,0,2.15,1,2.15,2.22,0,1.44-1.03,2.65-2.47,2.65s-2.49-1.16-2.49-3c0-2.47,1.88-4.03,3.32-4.52.26-.1.86-.23,1.35-.31l.07.4c-.38.08-.95.24-1.31.41-.73.34-1.87,1.13-2.19,2.77l.8-.41ZM334.53,142.73c-.48,0-.89.18-1.16.34-.05.22-.07.52-.07.82,0,1.5.56,2.6,1.58,2.6.94,0,1.22-.98,1.22-1.79,0-1-.48-1.97-1.57-1.97Z"/>
    <path class="st9" d="M143.58,385.42c.25-.13.53-.2.77-.2,1.27,0,2.15,1,2.15,2.22,0,1.44-1.03,2.65-2.47,2.65s-2.49-1.16-2.49-3c0-2.47,1.88-4.03,3.32-4.52.26-.1.86-.23,1.35-.31l.07.4c-.38.08-.95.24-1.31.41-.73.34-1.87,1.13-2.19,2.77l.8-.41ZM143.87,385.9c-.48,0-.89.18-1.16.34-.05.22-.07.52-.07.82,0,1.5.56,2.6,1.58,2.6.94,0,1.22-.98,1.22-1.79,0-1-.48-1.97-1.57-1.97Z"/>
    <g>
      <path class="st9" d="M331.93,576.42h-2.76l.08-.73h2.76l-.08.73Z"/>
      <path class="st9" d="M335.1,574.25c.25-.13.53-.2.77-.2,1.27,0,2.15,1,2.15,2.22,0,1.44-1.03,2.65-2.47,2.65s-2.49-1.16-2.49-3c0-2.47,1.88-4.03,3.32-4.52.26-.1.86-.23,1.35-.31l.07.4c-.38.08-.95.24-1.31.41-.73.34-1.87,1.13-2.19,2.77l.8-.41ZM335.39,574.73c-.48,0-.89.18-1.16.34-.05.22-.07.52-.07.82,0,1.5.56,2.6,1.58,2.6.94,0,1.22-.98,1.22-1.79,0-1-.48-1.97-1.57-1.97Z"/>
    </g>
    <g>
      <path class="st9" d="M574.43,387.59h-2.76l.08-.73h2.76l-.08.73Z"/>
      <path class="st9" d="M577.59,385.42c.25-.13.53-.2.77-.2,1.27,0,2.15,1,2.15,2.22,0,1.44-1.03,2.65-2.47,2.65s-2.49-1.16-2.49-3c0-2.47,1.88-4.03,3.32-4.52.26-.1.86-.23,1.35-.31l.07.4c-.38.08-.95.24-1.31.41-.73.34-1.87,1.13-2.19,2.77l.8-.41ZM577.88,385.9c-.48,0-.89.18-1.16.34-.05.22-.07.52-.07.82,0,1.5.56,2.6,1.58,2.6.94,0,1.22-.98,1.22-1.79,0-1-.48-1.97-1.57-1.97Z"/>
    </g>
    <path class="st9" d="M336.66,175.3l.07.1-.31.79h-2.76c-.11.66-.26,1.6-.37,2.18.46-.17,1.12-.35,1.42-.35,1.48,0,2.25,1.04,2.25,2.04,0,.72-.3,1.42-1.03,2.01-.66.53-1.49.84-2.12.84-.56,0-1.01-.23-1.25-.47-.17-.16-.22-.25-.19-.41,0-.11.1-.29.25-.41.11-.07.22-.1.34,0,.35.31.77.66,1.51.66,1.01,0,1.49-.86,1.49-1.76,0-1.06-.64-1.81-1.97-1.81-.49,0-.89.11-1.2.22l-.04-.05c.18-.94.44-2.63.58-3.59h3.33Z"/>
    <path class="st9" d="M182,382.47l.07.1-.31.79h-2.76c-.11.66-.26,1.59-.37,2.18.46-.17,1.12-.35,1.42-.35,1.48,0,2.25,1.04,2.25,2.04,0,.72-.3,1.42-1.03,2.02-.66.53-1.49.84-2.12.84-.56,0-1.01-.23-1.25-.47-.17-.16-.22-.25-.19-.41,0-.11.1-.29.25-.41.11-.07.22-.1.34,0,.35.31.77.66,1.51.66,1.01,0,1.49-.86,1.49-1.76,0-1.06-.64-1.81-1.97-1.81-.49,0-.89.11-1.2.22l-.04-.05c.18-.94.44-2.63.58-3.59h3.33Z"/>
    <g>
      <path class="st9" d="M331.93,540.42h-2.76l.08-.73h2.76l-.08.73Z"/>
      <path class="st9" d="M337.51,535.3l.07.1-.31.79h-2.76c-.11.66-.26,1.6-.37,2.18.46-.17,1.12-.35,1.42-.35,1.48,0,2.25,1.04,2.25,2.04,0,.72-.3,1.42-1.03,2.01-.66.53-1.49.84-2.12.84-.56,0-1.01-.23-1.25-.47-.17-.16-.22-.25-.19-.41,0-.11.1-.29.25-.41.11-.07.22-.1.34,0,.35.31.77.66,1.51.66,1.01,0,1.49-.86,1.49-1.76,0-1.06-.64-1.81-1.97-1.81-.49,0-.89.11-1.2.22l-.04-.05c.18-.94.44-2.63.58-3.59h3.33Z"/>
    </g>
    <g>
      <path class="st9" d="M538.43,387.59h-2.76l.08-.73h2.76l-.08.73Z"/>
      <path class="st9" d="M544,382.47l.07.1-.31.79h-2.76c-.11.66-.26,1.59-.37,2.18.46-.17,1.12-.35,1.42-.35,1.48,0,2.25,1.04,2.25,2.04,0,.72-.3,1.42-1.03,2.01-.66.53-1.49.84-2.12.84-.56,0-1.01-.23-1.25-.47-.17-.16-.22-.25-.19-.41,0-.11.1-.29.25-.41.11-.07.22-.1.33,0,.35.31.77.66,1.51.66,1.01,0,1.49-.86,1.49-1.76,0-1.06-.64-1.81-1.97-1.81-.49,0-.89.11-1.2.22l-.04-.05c.18-.94.44-2.63.58-3.59h3.33Z"/>
    </g>
    <path class="st9" d="M336.12,216.59v.91c0,.79.05.85.9.94v.34h-2.81v-.34c.9-.08.96-.16.96-.95v-.9h-3.17v-.36c1.14-1.62,2.37-3.37,3.57-5.04h.54v4.82h1.18v.58h-1.18ZM335.17,212.45c-.76,1.1-1.59,2.33-2.42,3.56h2.42v-3.56Z"/>
    <path class="st9" d="M217.46,387.75v.91c0,.79.05.85.9.94v.34h-2.81v-.34c.9-.08.96-.16.96-.95v-.9h-3.17v-.36c1.14-1.62,2.37-3.37,3.57-5.04h.54v4.82h1.18v.58h-1.18ZM216.51,383.62c-.76,1.1-1.59,2.33-2.42,3.56h2.42v-3.56Z"/>
    <g>
      <path class="st9" d="M331.93,504.42h-2.76l.08-.73h2.76l-.08.73Z"/>
      <path class="st9" d="M336.97,504.59v.91c0,.79.05.85.9.94v.34h-2.81v-.34c.9-.08.96-.16.96-.95v-.9h-3.17v-.36c1.14-1.62,2.37-3.37,3.57-5.04h.54v4.82h1.18v.58h-1.18ZM336.02,500.45c-.76,1.1-1.6,2.33-2.42,3.56h2.42v-3.56Z"/>
    </g>
    <g>
      <path class="st9" d="M502.43,387.59h-2.76l.08-.73h2.76l-.08.73Z"/>
      <path class="st9" d="M507.47,387.75v.91c0,.79.05.85.9.94v.34h-2.81v-.34c.9-.08.96-.16.96-.95v-.9h-3.17v-.36c1.14-1.62,2.38-3.37,3.57-5.04h.54v4.82h1.17v.58h-1.17ZM506.52,383.62c-.75,1.1-1.59,2.33-2.42,3.56h2.42v-3.56Z"/>
    </g>
    <path class="st9" d="M332.41,248.6l.56-.76c.35-.38.9-.68,1.55-.68,1.09,0,1.81.68,1.81,1.6,0,.36-.16.65-.37.89-.19.2-.5.42-.85.65,1.12.24,1.77.97,1.77,1.85,0,1.96-2.3,2.78-3.15,2.78-.56,0-1.08-.24-1.25-.42-.14-.16-.18-.26-.18-.4.01-.19.17-.37.28-.46.1-.07.2-.08.31.01.32.29.8.64,1.49.64.86,0,1.48-.65,1.48-1.81-.01-1.1-.82-1.54-1.58-1.54-.28,0-.61.07-.8.13l-.08-.36c1.07-.35,1.93-.83,1.93-1.72,0-.71-.46-1.12-1.15-1.12s-1.19.49-1.5.95l-.25-.24Z"/>
    <g>
      <path class="st9" d="M331.93,468.42h-2.76l.08-.73h2.76l-.08.73Z"/>
      <path class="st9" d="M333.26,464.6l.56-.76c.35-.38.9-.68,1.55-.68,1.09,0,1.81.68,1.81,1.6,0,.36-.16.65-.37.89-.19.2-.5.42-.85.65,1.12.24,1.78.97,1.78,1.85,0,1.96-2.3,2.78-3.15,2.78-.56,0-1.08-.24-1.25-.42-.14-.16-.18-.26-.18-.4.01-.19.17-.37.28-.46.1-.07.2-.08.31.01.32.29.8.63,1.49.63.86,0,1.48-.65,1.48-1.81-.01-1.1-.82-1.54-1.58-1.54-.28,0-.61.07-.8.13l-.08-.36c1.07-.35,1.93-.83,1.93-1.72,0-.71-.46-1.12-1.15-1.12s-1.19.49-1.5.95l-.25-.24Z"/>
    </g>
    <g>
      <path class="st9" d="M466.43,387.59h-2.76l.08-.73h2.76l-.08.73Z"/>
      <path class="st9" d="M467.76,383.76l.56-.75c.35-.38.9-.68,1.55-.68,1.09,0,1.81.68,1.81,1.59,0,.36-.16.65-.37.89-.19.2-.5.42-.85.65,1.12.24,1.78.97,1.78,1.85,0,1.96-2.3,2.78-3.15,2.78-.56,0-1.08-.24-1.25-.42-.14-.16-.18-.26-.18-.4.01-.19.17-.37.28-.46.1-.07.2-.08.31.01.32.29.8.64,1.49.64.86,0,1.47-.65,1.47-1.81-.01-1.1-.82-1.54-1.58-1.54-.28,0-.61.07-.8.13l-.08-.36c1.07-.35,1.93-.83,1.93-1.71,0-.71-.46-1.12-1.15-1.12s-1.19.49-1.5.95l-.25-.24Z"/>
    </g>
    <path class="st9" d="M337.15,289.18c-.16.54-.36,1.15-.48,1.6h-4.52v-.29c.66-.65,1.38-1.36,1.97-2.04.76-.89,1.48-1.85,1.48-2.89s-.53-1.57-1.4-1.57c-.83,0-1.34.65-1.65,1.12l-.28-.25.68-.97c.37-.42.95-.72,1.64-.72,1.14,0,2.04.78,2.04,2.07,0,1.02-.37,1.74-1.51,2.9-.52.54-1.27,1.27-1.79,1.76h2.29c.65,0,.83-.06,1.24-.82l.3.1Z"/>
    <path class="st9" d="M290.33,388.34c-.16.54-.36,1.15-.48,1.59h-4.52v-.29c.66-.65,1.38-1.36,1.97-2.04.76-.89,1.48-1.85,1.48-2.89s-.53-1.57-1.4-1.57c-.83,0-1.34.65-1.65,1.12l-.28-.25.68-.97c.37-.42.95-.72,1.64-.72,1.14,0,2.04.78,2.04,2.07,0,1.02-.37,1.74-1.51,2.9-.52.54-1.27,1.27-1.79,1.76h2.29c.65,0,.83-.06,1.24-.82l.3.1Z"/>
    <g>
      <path class="st9" d="M331.93,432.42h-2.76l.08-.73h2.76l-.08.73Z"/>
      <path class="st9" d="M338,433.18c-.16.54-.36,1.15-.48,1.6h-4.52v-.29c.66-.65,1.38-1.36,1.97-2.04.76-.89,1.48-1.85,1.48-2.89s-.53-1.57-1.4-1.57c-.83,0-1.34.65-1.65,1.12l-.28-.25.68-.97c.37-.42.95-.72,1.64-.72,1.14,0,2.04.78,2.04,2.08,0,1.02-.37,1.74-1.51,2.9-.52.54-1.27,1.27-1.79,1.76h2.29c.65,0,.83-.06,1.24-.82l.3.1Z"/>
    </g>
    <g>
      <path class="st9" d="M430.43,387.59h-2.76l.08-.73h2.76l-.08.73Z"/>
      <path class="st9" d="M436.5,388.34c-.16.54-.36,1.15-.48,1.59h-4.52v-.29c.66-.65,1.38-1.36,1.97-2.04.75-.89,1.47-1.85,1.47-2.89s-.53-1.57-1.4-1.57c-.83,0-1.34.65-1.65,1.12l-.28-.25.68-.97c.37-.42.95-.72,1.64-.72,1.14,0,2.04.78,2.04,2.07,0,1.02-.37,1.74-1.51,2.9-.52.54-1.27,1.27-1.79,1.76h2.29c.65,0,.83-.06,1.24-.82l.3.1Z"/>
    </g>
    <path class="st9" d="M332.84,326.77v-.34c1.33-.08,1.4-.14,1.4-1.04v-4.61c0-.61-.08-.64-.61-.68l-.59-.06v-.3c.79-.13,1.58-.32,2.19-.59v6.24c0,.91.07.96,1.42,1.04v.34h-3.81Z"/>
    <path class="st9" d="M322.18,389.94v-.34c1.33-.08,1.4-.14,1.4-1.04v-4.61c0-.61-.08-.64-.61-.68l-.59-.06v-.3c.79-.13,1.58-.32,2.19-.59v6.24c0,.91.07.96,1.42,1.04v.34h-3.81Z"/>
    <path class="st9" d="M249.75,383.76l.56-.75c.35-.38.9-.68,1.55-.68,1.09,0,1.81.68,1.81,1.59,0,.36-.16.65-.37.89-.19.2-.5.42-.85.65,1.12.24,1.77.97,1.77,1.85,0,1.96-2.3,2.78-3.15,2.78-.56,0-1.08-.24-1.25-.42-.14-.16-.18-.26-.18-.4.01-.19.17-.37.28-.46.1-.07.2-.08.31.01.32.29.8.64,1.49.64.86,0,1.48-.65,1.48-1.81-.01-1.1-.82-1.54-1.58-1.54-.28,0-.61.07-.8.13l-.08-.36c1.07-.35,1.93-.83,1.93-1.71,0-.71-.46-1.12-1.15-1.12s-1.19.49-1.5.95l-.25-.24Z"/>
    <g>
      <path class="st9" d="M331.93,396.42h-2.76l.08-.73h2.76l-.08.73Z"/>
      <path class="st9" d="M333.69,398.77v-.34c1.33-.08,1.4-.14,1.4-1.04v-4.61c0-.61-.08-.64-.61-.68l-.59-.06v-.3c.79-.13,1.58-.32,2.19-.59v6.24c0,.91.07.96,1.42,1.04v.34h-3.81Z"/>
    </g>
    <g>
      <path class="st9" d="M394.43,387.59h-2.76l.08-.73h2.76l-.08.73Z"/>
      <path class="st9" d="M396.19,389.94v-.34c1.33-.08,1.4-.14,1.4-1.04v-4.61c0-.61-.08-.64-.61-.68l-.59-.06v-.3c.79-.13,1.58-.32,2.2-.59v6.24c0,.91.07.96,1.42,1.04v.34h-3.81Z"/>
    </g>
    <path class="st9" d="M352.33,347.54c1.8,0,2.47,2.01,2.47,3.87,0,1.75-.67,3.89-2.47,3.89s-2.51-1.98-2.51-3.87c0-1.75.68-3.89,2.51-3.89ZM352.33,347.96c-1.12,0-1.39,1.76-1.39,3.44s.34,3.48,1.39,3.48,1.37-1.79,1.37-3.47-.3-3.45-1.37-3.45Z"/>
    <g>
      <line class="st13" x1="171.2" y1="182.92" x2="135.2" y2="182.92"/>
      <line class="st13" x1="153.2" y1="164.92" x2="153.2" y2="200.92"/>
    </g>
    <g>
      <line class="st13" x1="249.34" y1="182.77" x2="213.34" y2="182.77"/>
      <line class="st13" x1="231.34" y1="164.77" x2="231.34" y2="200.77"/>
    </g>
    <g>
      <line class="st13" x1="480.33" y1="182.92" x2="516.33" y2="182.92"/>
      <line class="st13" x1="555" y1="182.92" x2="591" y2="182.92"/>
      <line class="st13" x1="498.33" y1="164.92" x2="498.33" y2="200.92"/>
    </g>
    <line class="st13" x1="596.67" y1="535.3" x2="560.67" y2="535.3"/>
    <circle class="st12" cx="153.2" cy="182.92" r="28.27"/>
    <circle class="st12" cx="231.34" cy="182.77" r="28.27"/>
    <circle class="st12" cx="498.33" cy="182.92" r="28.27"/>
    <circle class="st12" cx="573" cy="182.92" r="28.27"/>
    <circle class="st12" cx="578.67" cy="535.3" r="28.27"/>
    <circle class="st12" cx="504" cy="535.3" r="28.27"/>
    <circle class="st12" cx="228.94" cy="535.3" r="28.27"/>
    <circle class="st12" cx="154.27" cy="535.3" r="28.27"/>
    <path d="M477.59,666c-10.55,13.35-22.26,25.7-34.23,37.77,0,0-1.77,1.77-1.77,1.77-6.59-6.59-13.12-13.26-19.38-20.16-5.74-6.28-11.37-12.65-16.62-19.38,13.36,10.54,25.7,22.26,37.77,34.23,0,0-3.53,0-3.53,0,12.07-11.97,24.42-23.68,37.77-34.23h0Z"/>
    <line class="st4" x1="441.59" y1="702" x2="441.59" y2="414.09"/>
  </g>
  <g id="Isolation_Mode">
    <line class="st13" x1="523.19" y1="535.3" x2="487.19" y2="535.3"/>
    <line class="st13" x1="173.22" y1="535.3" x2="137.22" y2="535.3"/>
    <line class="st13" x1="246.94" y1="535.3" x2="210.94" y2="535.3"/>
    <line class="st13" x1="228.94" y1="517.3" x2="228.94" y2="553.3"/>
    <path class="st11" d="M54.76,67.49c1.34-.27,3.25-.44,5.07-.44,2.8,0,4.64.53,5.91,1.68,1.01.89,1.6,2.28,1.6,3.88,0,2.68-1.71,4.46-3.84,5.2v.07c1.56.55,2.5,2.02,2.99,4.13.67,2.85,1.15,4.8,1.57,5.6h-2.73c-.32-.59-.78-2.33-1.34-4.88-.61-2.79-1.71-3.88-4.09-3.95h-2.49v8.84h-2.63v-20.11ZM57.39,76.77h2.69c2.82,0,4.6-1.53,4.6-3.87,0-2.65-1.91-3.8-4.69-3.8-1.28,0-2.16.12-2.61.23v7.44Z"/>
    <path class="st10" d="M72.57,80.76c.05,3.6,2.34,5.08,5.01,5.08,1.9,0,3.07-.34,4.05-.75l.47,1.89c-.93.43-2.56.93-4.88.93-4.5,0-7.2-3-7.2-7.39s2.61-7.9,6.89-7.9c4.77,0,6.02,4.19,6.02,6.88,0,.56-.03.96-.09,1.25h-10.26ZM80.36,78.85c.03-1.68-.69-4.31-3.67-4.31-2.72,0-3.87,2.46-4.09,4.31h7.76Z"/>
    <path class="st2" d="M94.36,87.6l-.23-1.85h-.08c-.8,1.14-2.38,2.18-4.48,2.18-2.96,0-4.47-2.1-4.47-4.2,0-3.54,3.14-5.49,8.79-5.45v-.31c0-1.19-.33-3.39-3.33-3.38-1.36,0-2.79.41-3.81,1.09l-.6-1.77c1.21-.78,2.98-1.28,4.83-1.28,4.47,0,5.56,3.06,5.56,5.99v5.47c0,1.25.06,2.5.22,3.5h-2.4ZM93.94,80.13c-2.88-.06-6.18.46-6.18,3.29,0,1.75,1.15,2.55,2.48,2.55,1.93,0,3.14-1.21,3.57-2.45.09-.28.13-.58.13-.84v-2.55Z"/>
    <path class="st0" d="M100.83,66.12h2.65v21.48h-2.65v-21.48Z"/>
    <path class="st1" d="M110.94,68.83c0,.91-.64,1.65-1.69,1.65-.96,0-1.61-.75-1.61-1.65,0-.91.68-1.66,1.65-1.66s1.64.73,1.64,1.66ZM107.97,87.6v-14.63h2.65v14.63h-2.65Z"/>
    <path class="st8" d="M118.24,68.75v4.21h3.82v2.02h-3.82v7.89c0,1.82.52,2.85,2.01,2.85.69,0,1.19-.08,1.54-.19l.12,2.02c-.52.2-1.34.37-2.38.37-1.22,0-2.24-.4-2.87-1.13-.73-.81-1.03-2.1-1.03-3.82v-7.99h-2.27v-2.02h2.27v-3.52l2.61-.69Z"/>
    <path class="st7" d="M126.3,72.97l3.2,8.65c.34.97.7,2.11.94,2.99h.07c.26-.86.58-1.98.93-3.04l2.9-8.59h2.82l-4,10.42c-1.9,5.03-3.2,7.59-5.01,9.18-1.32,1.14-2.61,1.59-3.26,1.71l-.66-2.22c.67-.21,1.53-.63,2.33-1.3.72-.58,1.61-1.61,2.23-2.96.13-.28.21-.48.21-.64,0-.15-.04-.36-.19-.68l-5.4-13.5h2.89Z"/>
    <path d="M148.72,67.21v12.09c0,4.55,2.02,6.48,4.77,6.48,3,0,4.96-2,4.96-6.48v-12.09h2.65v11.9c0,6.27-3.3,8.83-7.72,8.83-4.16,0-7.31-2.38-7.31-8.71v-12.01h2.65Z"/>
    <path d="M165.54,77.73c0-1.87-.05-3.39-.12-4.77h2.38l.15,2.49h.06c1.06-1.79,2.82-2.83,5.19-2.83,3.54,0,6.21,2.98,6.21,7.43,0,5.27-3.23,7.87-6.65,7.87-1.96,0-3.64-.85-4.51-2.31h-.06v7.96h-2.65v-15.86ZM168.19,81.64c0,.38.04.74.11,1.08.48,1.86,2.09,3.12,3.98,3.12,2.82,0,4.45-2.31,4.45-5.67,0-2.92-1.53-5.43-4.35-5.43-1.81,0-3.52,1.28-4.03,3.28-.09.34-.17.73-.17,1.08v2.53Z"/>
    <path d="M202,77.52c0-1.73-.04-3.2-.12-4.56h2.33l.1,2.87h.09c.68-1.96,2.3-3.2,4.07-3.2.29,0,.5.02.74.07v2.5c-.27-.06-.54-.08-.91-.08-1.88,0-3.2,1.41-3.56,3.4-.07.37-.11.81-.11,1.24v7.82h-2.65v-10.08Z"/>
    <path d="M219.87,87.6l-.23-1.85h-.08c-.8,1.14-2.38,2.18-4.48,2.18-2.96,0-4.47-2.1-4.47-4.2,0-3.54,3.14-5.49,8.79-5.45v-.31c0-1.19-.33-3.39-3.33-3.38-1.36,0-2.79.41-3.81,1.09l-.6-1.77c1.21-.78,2.98-1.28,4.83-1.28,4.47,0,5.56,3.06,5.56,5.99v5.47c0,1.25.06,2.5.22,3.5h-2.4ZM219.45,80.13c-2.88-.06-6.18.46-6.18,3.29,0,1.75,1.15,2.55,2.48,2.55,1.93,0,3.14-1.21,3.57-2.45.09-.28.13-.58.13-.84v-2.55Z"/>
    <path d="M238.97,66.12v17.71c0,1.3.05,2.76.12,3.77h-2.37l-.13-2.53h-.07c-.81,1.63-2.57,2.86-4.96,2.86-3.55,0-6.28-3-6.28-7.43-.02-4.89,3.01-7.86,6.57-7.86,2.25,0,3.76,1.05,4.41,2.22h.06v-8.74h2.65ZM236.32,78.92c0-.35-.03-.79-.11-1.14-.41-1.68-1.85-3.06-3.85-3.06-2.76,0-4.4,2.42-4.4,5.63,0,2.97,1.48,5.44,4.35,5.44,1.78,0,3.4-1.2,3.89-3.19.09-.35.13-.72.13-1.14v-2.54Z"/>
    <path d="M244.89,80.76c.05,3.6,2.34,5.08,5.01,5.08,1.9,0,3.07-.34,4.05-.75l.47,1.89c-.93.43-2.56.93-4.88.93-4.5,0-7.2-3-7.2-7.39s2.61-7.9,6.89-7.9c4.77,0,6.02,4.19,6.02,6.88,0,.56-.03.96-.09,1.25h-10.26ZM252.68,78.85c.03-1.68-.69-4.31-3.67-4.31-2.72,0-3.87,2.46-4.09,4.31h7.76Z"/>
    <path class="st3" d="M192.59,92.09h0s-.01,0-.02,0c0,0,0,0,0,0h0c-5.13-.02-9.3-4.18-9.32-9.31h0s0-.03,0-.04c0,0,0,0,0,0h0c.02-8.3,6.78-15.04,15.09-15.04v.15c-8.22,0-14.92,6.68-14.94,14.9,0,5.06,4.12,9.18,9.18,9.19,3.11,0,5.64-2.54,5.65-5.65,0-1.91-1.55-3.46-3.46-3.46-1.16,0-2.11.95-2.11,2.11,0,.7.57,1.27,1.28,1.28.42,0,.76-.34.76-.76,0-.24-.2-.44-.44-.44v-.15c.33,0,.59.26.59.59h0s0,0,0,0c0,0,0,0,0,0h0c0,.5-.41.91-.91.91h0s0,0,0,0c0,0,0,0,0,0h0c-.78,0-1.42-.64-1.42-1.42h0s0,0,0,0c0,0,0,0,0,0h0c0-1.24,1.01-2.25,2.25-2.26h0s0,0,0,0c0,0,0,0,0,0h0c1.98,0,3.6,1.62,3.61,3.6h0s0,0,0,.01c0,0,0,0,0,0h0c0,3.19-2.6,5.78-5.78,5.79Z"/>
    <g>
      <path d="M58.53,627.72h3.52v24.29h11.64v2.95h-15.15v-27.24Z"/>
      <path d="M93.24,649.62c0,2.02.04,3.8.16,5.33h-3.15l-.2-3.19h-.08c-.93,1.58-2.99,3.64-6.47,3.64-3.07,0-6.75-1.7-6.75-8.57v-11.44h3.56v10.83c0,3.72,1.13,6.22,4.36,6.22,2.38,0,4.04-1.66,4.69-3.23.2-.53.32-1.17.32-1.82v-12h3.56v14.22Z"/>
      <path d="M102.66,644.37h.08c.48-.69,1.17-1.54,1.74-2.22l5.74-6.75h4.28l-7.56,8.04,8.61,11.52h-4.32l-6.75-9.38-1.82,2.02v7.35h-3.52v-28.69h3.52v18.1Z"/>
      <path d="M120.07,645.83c.08,4.81,3.15,6.79,6.71,6.79,2.55,0,4.08-.44,5.42-1.01l.61,2.55c-1.25.57-3.39,1.21-6.51,1.21-6.02,0-9.62-3.96-9.62-9.86s3.48-10.55,9.17-10.55c6.38,0,8.08,5.62,8.08,9.21,0,.73-.08,1.29-.12,1.66h-13.74ZM130.5,643.28c.04-2.26-.93-5.78-4.93-5.78-3.6,0-5.17,3.31-5.46,5.78h10.39Z"/>
      <path d="M139.75,635.4l2.59,9.94c.57,2.18,1.09,4.2,1.45,6.22h.12c.44-1.98,1.09-4.08,1.74-6.18l3.19-9.98h2.99l3.03,9.78c.73,2.34,1.29,4.4,1.74,6.39h.12c.32-1.98.85-4.04,1.5-6.34l2.79-9.82h3.52l-6.3,19.56h-3.23l-2.99-9.33c-.69-2.18-1.25-4.12-1.74-6.43h-.08c-.48,2.34-1.09,4.36-1.78,6.47l-3.15,9.29h-3.23l-5.9-19.56h3.64Z"/>
      <path d="M178.74,654.96l-.28-2.47h-.12c-1.09,1.54-3.19,2.91-5.98,2.91-3.96,0-5.98-2.79-5.98-5.62,0-4.73,4.2-7.31,11.76-7.27v-.4c0-1.62-.44-4.53-4.45-4.53-1.82,0-3.72.57-5.09,1.45l-.81-2.34c1.62-1.05,3.96-1.74,6.43-1.74,5.98,0,7.44,4.08,7.44,8v7.31c0,1.7.08,3.35.32,4.69h-3.23ZM178.22,644.98c-3.88-.08-8.28.61-8.28,4.4,0,2.3,1.54,3.4,3.35,3.4,2.55,0,4.16-1.62,4.73-3.27.12-.36.2-.77.2-1.13v-3.4Z"/>
      <path d="M187.39,641.5c0-2.3-.04-4.28-.16-6.1h3.11l.12,3.84h.16c.89-2.63,3.03-4.28,5.42-4.28.4,0,.69.04,1.01.12v3.35c-.36-.08-.73-.12-1.21-.12-2.51,0-4.28,1.9-4.77,4.57-.08.49-.16,1.05-.16,1.66v10.43h-3.52v-13.46Z"/>
      <path d="M200.77,640.69c0-2.02-.04-3.68-.16-5.29h3.11l.16,3.15h.12c1.09-1.86,2.91-3.6,6.14-3.6,2.67,0,4.69,1.62,5.54,3.92h.08c.61-1.09,1.37-1.94,2.18-2.55,1.17-.89,2.47-1.37,4.32-1.37,2.59,0,6.43,1.7,6.43,8.49v11.52h-3.48v-11.07c0-3.76-1.37-6.02-4.24-6.02-2.02,0-3.6,1.5-4.2,3.23-.16.49-.28,1.13-.28,1.78v12.08h-3.48v-11.72c0-3.11-1.37-5.37-4.08-5.37-2.22,0-3.84,1.78-4.4,3.56-.2.53-.28,1.13-.28,1.74v11.8h-3.48v-14.27Z"/>
    </g>
    <g>
      <path d="M487.34,626.78v10.29h11.9v-10.29h3.21v24.6h-3.21v-11.53h-11.9v11.53h-3.18v-24.6h3.18Z"/>
      <path d="M509.63,643.13c.07,4.34,2.85,6.13,6.06,6.13,2.3,0,3.69-.4,4.89-.91l.55,2.3c-1.13.51-3.07,1.1-5.88,1.1-5.44,0-8.69-3.58-8.69-8.91s3.14-9.52,8.28-9.52c5.77,0,7.3,5.07,7.3,8.32,0,.66-.07,1.17-.11,1.5h-12.41ZM519.05,640.83c.04-2.04-.84-5.22-4.45-5.22-3.25,0-4.67,2.99-4.93,5.22h9.38Z"/>
      <path d="M526.13,625.47h3.21v25.91h-3.21v-25.91Z"/>
      <path d="M534.74,625.47h3.21v25.91h-3.21v-25.91Z"/>
      <path d="M567.07,642.4c0,6.53-4.53,9.38-8.8,9.38-4.78,0-8.47-3.5-8.47-9.09,0-5.91,3.87-9.38,8.76-9.38s8.5,3.69,8.5,9.09ZM553.06,642.59c0,3.87,2.23,6.79,5.36,6.79s5.36-2.88,5.36-6.86c0-2.99-1.5-6.79-5.29-6.79s-5.44,3.5-5.44,6.86Z"/>
      <path d="M571.12,638.5c0-1.82-.04-3.32-.15-4.78h2.85l.18,2.92h.07c.88-1.68,2.92-3.32,5.84-3.32,2.45,0,6.24,1.46,6.24,7.52v10.55h-3.21v-10.18c0-2.85-1.06-5.22-4.09-5.22-2.12,0-3.76,1.5-4.31,3.28-.15.4-.22.95-.22,1.5v10.62h-3.21v-12.88Z"/>
      <path d="M611.95,639.85h-9.56v8.87h10.66v2.66h-13.83v-24.6h13.28v2.66h-10.11v7.77h9.56v2.63Z"/>
      <path d="M626.84,651.38l-.26-2.23h-.11c-.99,1.39-2.88,2.63-5.4,2.63-3.58,0-5.4-2.52-5.4-5.07,0-4.27,3.8-6.61,10.62-6.57v-.37c0-1.46-.4-4.09-4.01-4.09-1.64,0-3.36.51-4.6,1.31l-.73-2.12c1.46-.95,3.58-1.57,5.8-1.57,5.4,0,6.71,3.69,6.71,7.23v6.61c0,1.53.07,3.03.29,4.23h-2.92ZM626.37,642.37c-3.5-.07-7.48.55-7.48,3.98,0,2.08,1.39,3.07,3.03,3.07,2.3,0,3.76-1.46,4.27-2.96.11-.33.18-.69.18-1.02v-3.07Z"/>
      <path d="M634.65,639.23c0-2.08-.04-3.87-.15-5.51h2.81l.11,3.47h.15c.8-2.37,2.74-3.87,4.89-3.87.36,0,.62.04.91.11v3.03c-.33-.07-.66-.11-1.1-.11-2.26,0-3.87,1.72-4.31,4.12-.07.44-.15.95-.15,1.5v9.42h-3.18v-12.15Z"/>
      <path d="M651.33,628.65v5.07h4.6v2.45h-4.6v9.53c0,2.19.62,3.43,2.41,3.43.84,0,1.46-.11,1.86-.22l.15,2.41c-.62.26-1.61.44-2.85.44-1.5,0-2.7-.47-3.47-1.35-.91-.95-1.24-2.52-1.24-4.6v-9.63h-2.74v-2.45h2.74v-4.23l3.14-.84Z"/>
      <path d="M659.54,625.47h3.21v11.02h.07c.51-.91,1.31-1.72,2.3-2.26.95-.55,2.08-.91,3.28-.91,2.37,0,6.17,1.46,6.17,7.55v10.51h-3.21v-10.15c0-2.85-1.06-5.26-4.09-5.26-2.08,0-3.72,1.46-4.31,3.21-.18.44-.22.91-.22,1.53v10.66h-3.21v-25.91Z"/>
    </g>
    <g>
      <path d="M473.34,289.46h3.52v24.29h11.64v2.95h-15.15v-27.24Z"/>
      <path d="M508.05,311.36c0,2.02.04,3.8.16,5.33h-3.15l-.2-3.19h-.08c-.93,1.58-2.99,3.64-6.47,3.64-3.07,0-6.75-1.7-6.75-8.57v-11.44h3.56v10.83c0,3.72,1.13,6.22,4.36,6.22,2.38,0,4.04-1.66,4.69-3.23.2-.53.32-1.17.32-1.82v-12h3.56v14.22Z"/>
      <path d="M517.47,306.1h.08c.48-.69,1.17-1.54,1.74-2.22l5.74-6.75h4.28l-7.56,8.04,8.61,11.52h-4.32l-6.75-9.38-1.82,2.02v7.35h-3.52v-28.69h3.52v18.1Z"/>
      <path d="M534.88,307.56c.08,4.81,3.15,6.79,6.71,6.79,2.55,0,4.08-.44,5.42-1.01l.61,2.55c-1.25.57-3.39,1.21-6.51,1.21-6.02,0-9.62-3.96-9.62-9.86s3.48-10.55,9.17-10.55c6.38,0,8.08,5.62,8.08,9.21,0,.73-.08,1.29-.12,1.66h-13.74ZM545.31,305.01c.04-2.26-.93-5.78-4.93-5.78-3.6,0-5.17,3.31-5.46,5.78h10.39Z"/>
      <path d="M554.56,297.13l2.59,9.94c.57,2.18,1.09,4.2,1.45,6.22h.12c.44-1.98,1.09-4.08,1.74-6.18l3.19-9.98h2.99l3.03,9.78c.73,2.34,1.29,4.4,1.74,6.39h.12c.32-1.98.85-4.04,1.5-6.34l2.79-9.82h3.52l-6.3,19.56h-3.23l-2.99-9.33c-.69-2.18-1.25-4.12-1.74-6.43h-.08c-.48,2.34-1.09,4.36-1.78,6.47l-3.15,9.29h-3.23l-5.9-19.56h3.64Z"/>
      <path d="M593.56,316.69l-.28-2.47h-.12c-1.09,1.54-3.19,2.91-5.98,2.91-3.96,0-5.98-2.79-5.98-5.62,0-4.73,4.2-7.31,11.76-7.27v-.4c0-1.62-.44-4.53-4.45-4.53-1.82,0-3.72.57-5.09,1.45l-.81-2.34c1.62-1.05,3.96-1.74,6.43-1.74,5.98,0,7.44,4.08,7.44,8v7.31c0,1.7.08,3.35.32,4.69h-3.23ZM593.03,306.71c-3.88-.08-8.28.61-8.28,4.4,0,2.3,1.54,3.4,3.35,3.4,2.55,0,4.16-1.62,4.73-3.27.12-.36.2-.77.2-1.13v-3.4Z"/>
      <path d="M602.2,303.24c0-2.3-.04-4.28-.16-6.1h3.11l.12,3.84h.16c.89-2.63,3.03-4.28,5.42-4.28.4,0,.69.04,1.01.12v3.35c-.36-.08-.73-.12-1.21-.12-2.51,0-4.28,1.9-4.77,4.57-.08.49-.16,1.05-.16,1.66v10.43h-3.52v-13.46Z"/>
      <path d="M615.58,302.43c0-2.02-.04-3.68-.16-5.29h3.11l.16,3.15h.12c1.09-1.86,2.91-3.6,6.14-3.6,2.67,0,4.69,1.62,5.54,3.92h.08c.61-1.09,1.37-1.94,2.18-2.55,1.17-.89,2.47-1.37,4.32-1.37,2.59,0,6.43,1.7,6.43,8.49v11.52h-3.48v-11.07c0-3.76-1.37-6.02-4.24-6.02-2.02,0-3.6,1.5-4.2,3.23-.16.49-.28,1.13-.28,1.78v12.08h-3.48v-11.72c0-3.11-1.37-5.37-4.08-5.37-2.22,0-3.84,1.78-4.4,3.56-.2.53-.28,1.13-.28,1.74v11.8h-3.48v-14.27Z"/>
    </g>
  </g>
</svg>