<?xml version="1.0" encoding="UTF-8"?>
<svg id="Layer_1" xmlns="http://www.w3.org/2000/svg" version="1.1" viewBox="0 0 720 720">
  <!-- Generator: Adobe Illustrator 30.0.0, SVG Export Plug-In . SVG Version: 2.1.1 Build 123)  -->
  <defs>
    <style>
      .st0 {
        stroke: #000;
        stroke-miterlimit: 10;
      }

      .st0, .st1 {
        fill: #e7ca83;
      }
    </style>
  </defs>
  <g>
    <path d="M64.81,133.67c-.97,9.03-1.72,18.08-2.25,27.14-.28,4.8-7.78,4.82-7.5,0,.53-9.06,1.28-18.11,2.25-27.14.51-4.75,8.01-4.79,7.5,0Z"/>
    <path d="M89.97,129.83c4.73-.75,6.74,6.48,1.99,7.23-3.4.54-6.8,1.08-10.19,1.61-.09.01-.69.11-1.26.2-.02.17-.03.34-.05.51.11,1.53-.36,3.32-.54,4.85-.03.23-.06.46-.08.7,2.54-.4,5.1-.63,7.67-.67,4.83-.07,4.82,7.43,0,7.5-2.94.04-5.79.36-8.65.96-.53,3.95-1.1,7.89-1.72,11.83-.75,4.76-7.97,2.73-7.23-1.99,1.31-8.31,2.3-16.64,3.25-25,.41-3.59,1.88-5.34,5.49-5.94,3.77-.63,7.55-1.2,11.33-1.79h0Z"/>
    <path d="M139.93,131.62c-1.39,10.78-1.31,26.02-12.87,31.23-4.42,1.99-7.03-5.04-2.66-7.01,2.25-1.02,3.62-2.93,4.53-5.12-2.73.94-5.67.98-8.36-.39-7.24-3.69-6.5-14.05-3.77-20.33,1.92-4.43,8.72-1.27,6.8,3.16-1.01,2.32-2.69,8.49.14,10.37,2.78,1.84,6.49-2.05,7.7-4.44.4-2.92.74-5.85,1.12-8.78.62-4.79,8-3.47,7.38,1.31Z"/>
    <path d="M171.92,147.88c-.69,4.37-2.78,8.5-6.22,11.34-3.33,2.75-8.02,4.31-12.27,2.94-4.12-1.33-6.77-5.51-7.79-9.52-1.5-5.86-.76-16.33,4.48-20.82,5.34-5.43,16.04-4.59,20.15,2.16,2.35,3.86,2.33,9.58,1.65,13.89ZM164.59,140.72c-.39-2.91-2.38-5.02-5.47-4.97-1.78.03-3.53.94-4.58,2.38-1.19,1.64-1.66,4.23-1.91,6.21-.29,2.2-.17,4.45.36,6.61.32,1.31.84,2.65,1.91,3.46,1.7,1.29,4.26.75,5.88-.64.13-.11.25-.22.37-.33,3.35-3.19,4.03-8.36,3.44-12.72Z"/>
    <path d="M190.88,161.27c-13.15,2.23-14.05-17.2-13.44-25.64.34-4.79,7.84-4.81,7.5,0-.21,2.96-.66,20.93,5.66,17.93,5.85-2.78,6.62-11.97,5.94-17.43-.6-4.78,6.9-4.72,7.5,0,1.13,9-2.52,23.34-13.15,25.15Z"/>
    <path d="M250.56,131.57c-1.8,9.19-3.04,18.44-3.72,27.78-.35,4.79-7.85,4.81-7.5,0,.23-3.13.52-6.25.87-9.37h-6.88c-.47,3.96-.93,7.93-1.4,11.89-.56,4.74-8.06,4.78-7.5,0,.65-5.5,1.3-11,1.94-16.5.31-2.65.62-5.29.94-7.94.28-2.36.25-5.1,1.09-7.33,1.67-4.49,8.92-2.53,7.23,1.99-.8,2.15-.77,4.9-1.03,7.17-.13,1.07-.25,2.15-.38,3.22h6.95c.61-4.32,1.33-8.63,2.17-12.91.93-4.74,8.15-2.72,7.23,1.99Z"/>
    <path d="M279.55,162.63c.12,4.83-7.37,4.82-7.5,0-.05-1.99-.1-3.98-.15-5.97l-7.51-.28c-.55,2.51-1,5.04-1.45,7.55-.85,4.75-8.07,2.72-7.23-1.99,1.17-6.52,2.44-12.98,5.17-19.05,2.03-4.53,5.68-10.77,10.48-12.83,7.39-3.17,7.5,8.26,7.67,12.59.25,6.66.35,13.32.52,19.98ZM271.71,149.15c-.06-2.17-.09-4.34-.17-6.51-.03-.86-.01-1.84-.03-2.84-.52.62-1.01,1.26-1.46,1.94-1.33,1.99-2.42,4.15-3.27,6.38-.1.27-.2.55-.29.83,1.74.07,3.49.13,5.23.2Z"/>
    <path d="M311.19,140.02c-3.08,8.16-6.55,16.17-10.39,24-1.3,2.65-5.06,2.22-6.47,0-4.91-7.72-6.86-17.41-9.58-26.06-1.45-4.62,5.78-6.58,7.23-1.99,1.79,5.68,3.2,11.92,5.49,17.62,2.33-5.11,4.51-10.3,6.5-15.56,1.69-4.48,8.94-2.52,7.23,1.99Z"/>
    <path d="M334.81,161.46c-4.56-.18-9.08.01-13.59.74-2.1.34-5.08-.95-4.74-3.61,1.16-9.23,2.52-18.43,4.12-27.6.1-.59.31-1.08.58-1.47.58-.94,1.58-1.62,3-1.67,3.61-.12,7.22-.05,10.83.19,4.79.33,4.81,7.83,0,7.5-2.53-.17-5.05-.25-7.58-.24-.33,1.93-.64,3.87-.95,5.8,1.32.02,2.64.1,3.95.23,2.02.21,3.75,1.55,3.75,3.75,0,1.88-1.73,3.95-3.75,3.75-1.7-.17-3.39-.25-5.09-.24-.28,1.9-.55,3.81-.8,5.72,3.41-.33,6.82-.46,10.27-.32,4.82.19,4.82,7.69,0,7.5Z"/>
    <path d="M380.63,154.35c-1.09,10.03-15.2,13.29-21.09,5.51-2.92-3.85,3.6-7.58,6.47-3.78.83,1.09,4.32.54,5.25.13,1.4-.62,2.17-2.04,1.96-3.59-.49-3.69-5.12-4.48-7.5-6.55-6.67-5.79-2.02-14.71,4.67-17.86,4.34-2.05,8.14,4.42,3.78,6.47-1.67.79-5.01,2.53-4.13,4.96.58,1.58,3.58,2.38,4.91,3.27,3.77,2.52,6.19,6.86,5.69,11.45Z"/>
    <path d="M412.67,147.88c-.69,4.37-2.78,8.5-6.22,11.34-3.33,2.75-8.02,4.31-12.27,2.94-4.12-1.33-6.77-5.51-7.79-9.52-1.5-5.86-.76-16.33,4.48-20.82,5.34-5.43,16.04-4.59,20.15,2.16,2.35,3.86,2.33,9.58,1.65,13.89ZM405.34,140.72c-.39-2.91-2.38-5.02-5.47-4.97-1.78.03-3.53.94-4.58,2.38-1.19,1.64-1.66,4.23-1.91,6.21-.29,2.2-.17,4.45.36,6.61.32,1.31.84,2.65,1.91,3.46,1.7,1.29,4.26.75,5.88-.64.13-.11.25-.22.37-.33,3.35-3.19,4.03-8.36,3.44-12.72Z"/>
    <path d="M451.81,163.57c-.47,4.77-7.97,4.8-7.5,0,.65-6.62,1.96-13.98.78-20.6-.14-.79-.51-1.59-.61-2.37-.68.83-1.77,1.72-2.25,2.46-1.48,2.31-2.3,4.78-2.74,7.48-.68,4.17-7.78,3.17-7.36-1,.18-1.81.28-3.62.23-5.45-.03-.96.17-3.3-.45-4.09-.08-.11-.1-.18-.09-.24-.03,0-.04.02-.07.02-.59.15-1.26,1.52-1.5,1.92-.72,1.21-1.29,2.52-1.78,3.84-2.18,5.98-2.56,12.38-2.93,18.67-.29,4.8-7.79,4.82-7.5,0,.31-5.24.66-10.52,1.79-15.66,1.03-4.7,2.82-10.44,6.37-13.91,3.31-3.23,9.01-3.52,11.72.65.12.18.22.37.32.55,2.94-3.45,6.66-5.24,10.54-1.86,3.5,3.05,4.01,8.38,4.1,12.73.1,5.62-.53,11.26-1.08,16.84Z"/>
    <path d="M476.26,161.46c-4.56-.18-9.08.01-13.59.74-2.09.34-5.08-.95-4.74-3.61,1.16-9.23,2.52-18.43,4.12-27.6.1-.59.31-1.08.58-1.47.58-.94,1.58-1.62,3-1.67,3.61-.12,7.22-.05,10.83.19,4.8.33,4.82,7.83,0,7.5-2.53-.17-5.05-.25-7.58-.24-.33,1.93-.64,3.87-.95,5.8,1.32.02,2.64.1,3.95.23,2.02.21,3.75,1.55,3.75,3.75,0,1.88-1.73,3.95-3.75,3.75-1.7-.17-3.39-.25-5.09-.24-.28,1.9-.55,3.81-.8,5.72,3.41-.33,6.82-.46,10.27-.32,4.82.19,4.82,7.69,0,7.5Z"/>
    <path d="M505.33,137.65c-1.6-.21-3.21-.35-4.81-.46-.44,7.28-.88,14.57-1.31,21.85-.29,4.8-7.79,4.82-7.5,0,.44-7.31.88-14.63,1.32-21.94-1.46.06-2.93.16-4.4.3-4.8.48-4.76-7.02,0-7.5,5.59-.55,11.13-.47,16.7.24,4.73.61,4.77,8.11,0,7.5Z"/>
    <path d="M540.06,131.57c-1.8,9.19-3.04,18.44-3.72,27.78-.35,4.79-7.85,4.81-7.5,0,.23-3.13.52-6.25.87-9.37h-6.88c-.47,3.96-.93,7.93-1.4,11.89-.56,4.74-8.06,4.78-7.5,0,.65-5.5,1.3-11,1.94-16.5.31-2.65.62-5.29.94-7.94.28-2.36.25-5.1,1.09-7.33,1.67-4.49,8.92-2.53,7.23,1.99-.8,2.15-.77,4.9-1.04,7.17-.13,1.07-.25,2.15-.38,3.22h6.95c.61-4.32,1.33-8.63,2.17-12.91.93-4.74,8.15-2.72,7.23,1.99Z"/>
    <path d="M554.9,133.74c-.96,9.03-1.71,18.08-2.25,27.14-.28,4.8-7.78,4.82-7.5,0,.53-9.06,1.28-18.11,2.25-27.14.51-4.75,8.01-4.79,7.5,0Z"/>
    <path d="M586.68,136.22c-1.34,9.19-3.03,18.33-5.06,27.4-.66,2.96-5.55,3.87-6.85.9-1.58-3.64-3.17-7.27-4.75-10.91-1.01,4.34-1.94,8.69-2.77,13.07-.89,4.74-8.12,2.72-7.23-1.99,1.5-7.94,3.3-15.81,5.42-23.61.78-2.87,5.51-3.96,6.85-.9l4.42,10.16c1.02-5.35,1.94-10.72,2.73-16.11.7-4.76,7.92-2.73,7.23,1.99Z"/>
    <path d="M618.75,150.38c-.17,3.94-2.16,7.87-5.41,10.15-3.57,2.5-8.05,2.34-12.1,1.2-19.85-5.62-5.18-40.11,12.92-33.78,4.53,1.58,2.57,8.82-1.99,7.23-7.84-2.74-15.48,10.13-12.34,16.68,1.47,3.08,7.37,4.5,9.85,2,.51-.51.88-1.13,1.15-1.8.08-.19.12-.52.16-.86-.09,0-.17,0-.26,0-.23,0-.48,0-.72,0-1.7,1.8-5.53,1.78-6.65-1.35-2.06-5.75,4.97-6.12,8.6-6.18,4.46-.07,6.99,2.1,6.79,6.71Z"/>
    <path d="M81.78,196.22c-1.34,9.19-3.03,18.33-5.06,27.4-.66,2.96-5.55,3.87-6.85.9-1.58-3.64-3.17-7.27-4.75-10.91-1.01,4.34-1.94,8.69-2.77,13.07-.89,4.74-8.12,2.72-7.23-1.99,1.5-7.94,3.3-15.81,5.42-23.61.78-2.87,5.51-3.96,6.85-.9l4.42,10.16c1.02-5.35,1.94-10.72,2.73-16.11.7-4.76,7.92-2.73,7.23,1.99Z"/>
    <path d="M96.61,193.74c-.97,9.03-1.72,18.08-2.25,27.14-.28,4.8-7.78,4.82-7.5,0,.53-9.06,1.28-18.11,2.25-27.14.51-4.75,8.01-4.79,7.5,0Z"/>
    <path d="M123.39,219.74c-5.08,1.43-10.74,2.13-15.53-.59-4.17-2.37-6.42-6.79-6.2-11.54.44-9.32,9.03-17.97,18.56-17.22,4.79.38,4.81,7.88,0,7.5-5.25-.42-10.02,3.75-10.95,8.9-1.35,7.57,7.19,7.12,12.12,5.73,4.66-1.31,6.63,5.92,1.99,7.23Z"/>
    <path d="M149.41,221.46c-4.56-.18-9.08.01-13.59.74-2.1.34-5.08-.95-4.74-3.61,1.16-9.23,2.52-18.43,4.12-27.6.1-.59.31-1.08.58-1.47.58-.94,1.58-1.62,3-1.67,3.61-.12,7.22-.05,10.83.19,4.79.33,4.81,7.83,0,7.5-2.53-.17-5.05-.25-7.58-.24-.33,1.93-.64,3.87-.95,5.8,1.32.02,2.64.1,3.95.23,2.02.21,3.75,1.55,3.75,3.75,0,1.88-1.73,3.95-3.75,3.75-1.7-.17-3.39-.25-5.09-.24-.28,1.9-.55,3.81-.8,5.72,3.41-.33,6.82-.46,10.27-.32,4.82.19,4.82,7.69,0,7.5Z"/>
    <path d="M193.69,197.65c-1.6-.21-3.21-.35-4.81-.46-.44,7.28-.88,14.57-1.31,21.85-.29,4.8-7.79,4.82-7.5,0,.44-7.31.88-14.63,1.32-21.94-1.46.06-2.93.16-4.4.3-4.8.48-4.76-7.02,0-7.5,5.59-.55,11.13-.47,16.7.24,4.73.61,4.77,8.11,0,7.5Z"/>
    <path d="M229.22,207.88c-.69,4.37-2.78,8.5-6.22,11.34-3.33,2.75-8.02,4.31-12.27,2.94-4.12-1.33-6.77-5.51-7.79-9.52-1.5-5.86-.76-16.33,4.48-20.82,5.34-5.43,16.04-4.59,20.15,2.16,2.35,3.86,2.33,9.58,1.65,13.89ZM221.89,200.72c-.39-2.91-2.38-5.02-5.47-4.97-1.78.03-3.53.94-4.58,2.38-1.19,1.64-1.66,4.23-1.91,6.21-.29,2.2-.17,4.45.36,6.61.32,1.31.84,2.65,1.91,3.46,1.7,1.29,4.26.75,5.88-.64.13-.11.25-.22.37-.33,3.35-3.19,4.03-8.36,3.44-12.72Z"/>
    <path d="M271.63,214.35c-1.09,10.03-15.2,13.29-21.09,5.51-2.92-3.85,3.6-7.58,6.47-3.78.83,1.09,4.32.54,5.25.13,1.4-.62,2.17-2.04,1.96-3.59-.49-3.69-5.12-4.48-7.5-6.55-6.67-5.79-2.02-14.71,4.67-17.86,4.34-2.05,8.14,4.42,3.78,6.47-1.67.79-5.01,2.53-4.13,4.96.58,1.58,3.58,2.38,4.91,3.27,3.77,2.52,6.19,6.86,5.69,11.45Z"/>
    <path d="M300.6,222.63c.12,4.83-7.37,4.82-7.5,0-.05-1.99-.1-3.98-.15-5.97l-7.51-.28c-.55,2.51-1,5.04-1.45,7.55-.85,4.75-8.07,2.72-7.23-1.99,1.17-6.52,2.44-12.98,5.17-19.05,2.03-4.53,5.68-10.77,10.48-12.83,7.39-3.17,7.5,8.26,7.67,12.59.25,6.66.35,13.32.52,19.98ZM292.76,209.15c-.06-2.17-.09-4.34-.17-6.51-.03-.86-.01-1.84-.03-2.84-.52.62-1.01,1.26-1.46,1.94-1.33,1.99-2.42,4.15-3.27,6.38-.1.27-.2.55-.29.83,1.74.07,3.49.13,5.23.2Z"/>
    <path d="M330.67,191.62c-1.39,10.78-1.31,26.02-12.87,31.23-4.42,1.99-7.03-5.04-2.66-7.01,2.25-1.02,3.62-2.93,4.53-5.12-2.73.94-5.67.98-8.36-.39-7.24-3.69-6.5-14.05-3.77-20.33,1.92-4.43,8.72-1.27,6.8,3.16-1.01,2.32-2.69,8.49.14,10.37,2.78,1.84,6.49-2.05,7.7-4.44.4-2.92.74-5.85,1.12-8.78.62-4.79,8-3.47,7.38,1.31Z"/>
    <path d="M343.82,219.56c.04.93-.45,2-1.1,2.65-.68.68-1.69,1.1-2.65,1.1h-.62c-1.02,0-1.92-.42-2.65-1.1-.74-.68-1.05-1.68-1.1-2.65-.04-.93.45-2,1.1-2.65s1.69-1.1,2.65-1.1h.62c1.02,0,1.92.42,2.65,1.1.74.68,1.05,1.68,1.1,2.65Z"/>
    <path d="M356.97,219.56c.04.93-.45,2-1.1,2.65-.68.68-1.69,1.1-2.65,1.1h-.62c-1.02,0-1.92-.42-2.65-1.1-.74-.68-1.05-1.68-1.1-2.65-.04-.93.45-2,1.1-2.65s1.69-1.1,2.65-1.1h.62c1.02,0,1.92.42,2.65,1.1.74.68,1.05,1.68,1.1,2.65Z"/>
    <path d="M370.12,219.56c.04.93-.45,2-1.1,2.65s-1.69,1.1-2.65,1.1h-.62c-1.02,0-1.92-.42-2.65-1.1-.74-.68-1.05-1.68-1.1-2.65-.04-.93.45-2,1.1-2.65s1.69-1.1,2.65-1.1h.62c1.02,0,1.92.42,2.65,1.1.74.68,1.05,1.68,1.1,2.65Z"/>
    <path d="M412.17,214.28c-1.09,10.03-15.2,13.29-21.09,5.51-2.92-3.85,3.6-7.58,6.47-3.78.83,1.09,4.32.54,5.25.13,1.4-.62,2.17-2.04,1.96-3.59-.49-3.69-5.12-4.48-7.5-6.55-6.67-5.79-2.02-14.71,4.67-17.86,4.34-2.05,8.14,4.42,3.78,6.47-1.67.79-5.01,2.53-4.13,4.96.58,1.58,3.58,2.38,4.91,3.27,3.77,2.52,6.19,6.86,5.69,11.45Z"/>
    <path d="M441.15,222.63c.12,4.83-7.37,4.82-7.5,0-.05-1.99-.1-3.98-.15-5.97l-7.5-.28c-.55,2.51-1,5.04-1.45,7.55-.85,4.75-8.07,2.72-7.23-1.99,1.17-6.52,2.44-12.98,5.17-19.05,2.04-4.53,5.68-10.77,10.48-12.83,7.39-3.17,7.5,8.26,7.67,12.59.25,6.66.35,13.32.52,19.98ZM433.3,209.15c-.05-2.17-.09-4.34-.17-6.51-.03-.86-.01-1.84-.03-2.84-.52.62-1.01,1.26-1.46,1.94-1.33,1.99-2.42,4.15-3.27,6.38-.1.27-.2.55-.29.83,1.74.07,3.49.13,5.23.2Z"/>
    <path d="M471.22,191.62c-1.39,10.78-1.31,26.02-12.87,31.23-4.42,1.99-7.03-5.04-2.66-7.01,2.25-1.02,3.62-2.93,4.53-5.12-2.73.94-5.67.98-8.36-.39-7.24-3.69-6.5-14.05-3.77-20.33,1.92-4.43,8.72-1.27,6.8,3.16-1.01,2.32-2.69,8.49.14,10.37,2.78,1.84,6.49-2.05,7.7-4.44.4-2.92.74-5.85,1.12-8.78.62-4.79,8-3.47,7.38,1.31Z"/>
    <path d="M501.2,193.74c-.96,9.03-1.71,18.08-2.25,27.14-.28,4.8-7.78,4.82-7.5,0,.53-9.06,1.28-18.11,2.25-27.14.51-4.75,8.01-4.79,7.5,0Z"/>
    <path d="M526.53,197.65c-1.6-.21-3.21-.35-4.81-.46-.44,7.28-.88,14.57-1.31,21.85-.29,4.8-7.79,4.82-7.5,0,.44-7.31.88-14.63,1.32-21.94-1.46.06-2.93.16-4.4.3-4.8.48-4.76-7.02,0-7.5,5.59-.55,11.13-.47,16.7.24,4.73.61,4.77,8.11,0,7.5Z"/>
    <path d="M541.8,217.8c.69.63,1.1,1.73,1.1,2.65s-.42,1.97-1.1,2.65c-.1.1-.21.21-.31.31-.72.72-1.66,1.05-2.65,1.1-1,.04-1.94-.44-2.65-1.1-.69-.63-1.1-1.73-1.1-2.65s.42-1.97,1.1-2.65l.31-.31c.72-.72,1.66-1.05,2.65-1.1,1-.04,1.94.44,2.65,1.1ZM543.01,207.94c-.44,4.77-7.94,4.8-7.5,0,.88-9.57.91-19.16.12-28.74-.4-4.81,7.1-4.77,7.5,0,.8,9.58.76,19.17-.11,28.74Z"/>
  </g>
  <path class="st0" d="M190.42,575.59"/>
  <g>
    <path class="st1" d="M587.58,354.97c-16.66-18.64-18.23-100.52-18.23-100.52,0,0-1.57,81.88-18.23,100.52-14.84,16.6-64.61,17.52-75.32,17.52,10.71,0,60.49.92,75.32,17.52,16.66,18.64,18.23,100.52,18.23,100.52,0,0,1.57-81.88,18.23-100.52,14.84-16.6,64.61-17.52,75.32-17.52-10.71,0-60.49-.92-75.32-17.52Z"/>
    <path class="st1" d="M662.91,372.49c1.32,0,2.04.01,2.04.01v-.03s-.73.01-2.04.01Z"/>
    <path class="st1" d="M473.75,372.5s.73-.01,2.04-.01c-1.32,0-2.04-.01-2.04-.01v.03Z"/>
  </g>
  <g>
    <path class="st1" d="M427.12,430.34c-7.65-8.56-8.37-46.16-8.37-46.16,0,0-.72,37.6-8.37,46.16-6.81,7.62-29.67,8.04-34.59,8.05,4.92,0,27.78.42,34.59,8.05,7.65,8.56,8.37,46.16,8.37,46.16,0,0,.72-37.6,8.37-46.16,6.81-7.62,29.67-8.04,34.59-8.05-4.92,0-27.78-.42-34.59-8.05Z"/>
    <path class="st1" d="M461.71,438.38c.6,0,.94,0,.94,0h0s-.33,0-.94,0Z"/>
    <path class="st1" d="M374.85,438.39s.33,0,.94,0c-.6,0-.94,0-.94,0h0Z"/>
  </g>
  <g>
    <path class="st1" d="M444.68,310.24c-7.65-8.56-8.37-46.16-8.37-46.16,0,0-.72,37.6-8.37,46.16-6.81,7.62-29.67,8.04-34.59,8.05,4.92,0,27.78.42,34.59,8.05,7.65,8.56,8.37,46.16,8.37,46.16,0,0,.72-37.6,8.37-46.16,6.81-7.62,29.67-8.04,34.59-8.05-4.92,0-27.78-.42-34.59-8.05Z"/>
    <path class="st1" d="M479.27,318.29c.6,0,.94,0,.94,0h0s-.33,0-.94,0Z"/>
    <path class="st1" d="M392.4,318.29s.33,0,.94,0c-.6,0-.94,0-.94,0h0Z"/>
  </g>
  <path class="st0" d="M267.78,593.13"/>
</svg>