<?xml version="1.0" encoding="UTF-8"?>
<svg id="Isolation_Mode" xmlns="http://www.w3.org/2000/svg" version="1.1" viewBox="0 0 100 100">
  <!-- Generator: Adobe Illustrator 30.0.0, SVG Export Plug-In . SVG Version: 2.1.1 Build 123)  -->
  <defs>
    <style>
      .st0 {
        stroke: #000;
        stroke-miterlimit: 10;
        stroke-width: 2.28px;
      }
    </style>
  </defs>
  <path class="st0" d="M57.2,99.17h0s-.05,0-.07,0c-.01,0-.03,0-.04,0h0c-20.68-.06-37.49-16.85-37.59-37.52h0c0-.05,0-.1,0-.15,0-.01,0-.02,0-.03h0C19.6,28.01,46.84.83,80.31.83v.61c-33.15,0-60.13,26.93-60.21,60.06.02,20.42,16.61,37.03,37.02,37.07,12.55-.02,22.75-10.22,22.77-22.77-.01-7.69-6.26-13.94-13.95-13.96-4.69,0-8.51,3.82-8.52,8.51,0,2.83,2.31,5.14,5.14,5.14,1.69,0,3.06-1.37,3.07-3.06,0-.98-.8-1.78-1.78-1.78v-.61c1.31,0,2.38,1.07,2.39,2.38h0s0,0,0,0c0,0,0,0,0,0h0c0,2.02-1.64,3.66-3.66,3.66h0s0,0-.01,0c0,0,0,0,0,0h0c-3.16,0-5.73-2.57-5.74-5.73h0s0-.01,0-.02c0,0,0,0,0-.01h0c.01-5.01,4.08-9.08,9.09-9.1h0s.02,0,.03,0c0,0,0,0,.01,0h0c8,.02,14.51,6.52,14.54,14.52h0s0,.03,0,.05c0,0,0,.02,0,.02h0c-.04,12.84-10.47,23.28-23.3,23.35Z"/>
</svg>