<?xml version="1.0" encoding="UTF-8"?>
<svg id="Layer_1" xmlns="http://www.w3.org/2000/svg" version="1.1" viewBox="0 0 720 720">
  <!-- Generator: Adobe Illustrator 30.0.0, SVG Export Plug-In . SVG Version: 2.1.1 Build 123)  -->
  <defs>
    <style>
      .st0 {
        fill: #7c6b9d;
      }

      .st0, .st1, .st2, .st3, .st4, .st5, .st6, .st7 {
        stroke: #000;
        stroke-miterlimit: 10;
      }

      .st0, .st1, .st3, .st4, .st5, .st6, .st7 {
        stroke-width: 6px;
      }

      .st1 {
        fill: #bf4184;
      }

      .st2 {
        stroke-width: 7px;
      }

      .st2, .st3 {
        fill: #49648d;
      }

      .st4 {
        fill: #e7ca83;
      }

      .st5 {
        fill: #788b5c;
      }

      .st8 {
        fill: #f7931e;
      }

      .st6 {
        fill: none;
      }

      .st7 {
        fill: #d83832;
      }
    </style>
  </defs>
  <path class="st2" d="M565.06,330.9c0-38.41-31.14-69.54-69.54-69.54s-69.54,31.14-69.54,69.54"/>
  <path class="st8" d="M565.06,402.1c0,38.41-31.14,69.54-69.54,69.54s-69.54-31.14-69.54-69.54"/>
  <polygon class="st5" points="219.75 381.95 267.31 416.5 314.86 381.95 296.7 326.05 237.92 326.05 219.75 381.95"/>
  <path class="st6" d="M263.96,255.34"/>
  <polygon class="st0" points="219.75 381.95 154.94 329.99 237.92 326.05 219.75 381.95"/>
  <polygon class="st1" points="219.75 381.95 194.19 464.75 267.31 416.5 219.75 381.95"/>
  <polygon class="st7" points="237.92 326.05 267.31 248.36 296.7 326.05 237.92 326.05"/>
  <polygon class="st4" points="267.31 416.5 336.75 462.08 314.86 381.95 267.31 416.5"/>
  <polygon class="st3" points="296.7 326.05 379.67 329.99 314.86 381.95 296.7 326.05"/>
  <path class="st6" d="M565.06,402.1h-139.09c0,38.41,31.14,69.54,69.54,69.54s69.54-31.14,69.54-69.54l-139.09-71.2c0-38.41,31.14-69.54,69.54-69.54s69.54,31.14,69.54,69.54h-139.09"/>
</svg>